<svg aria-hidden="true" style="position: absolute; width: 0; height: 0; overflow: hidden;" version="1.1" xmlns="http://www.w3.org/2000/svg" xmlns:xlink="http://www.w3.org/1999/xlink">
<defs>
<symbol id="icon-add-outline" viewBox="0 0 20 20">
<path d="M11 9h4v2h-4v4h-2v-4h-4v-2h4v-4h2v4zM10 20c-5.523 0-10-4.477-10-10s4.477-10 10-10v0c5.523 0 10 4.477 10 10s-4.477 10-10 10v0zM10 18c4.418 0 8-3.582 8-8s-3.582-8-8-8v0c-4.418 0-8 3.582-8 8s3.582 8 8 8v0z"></path>
</symbol>
<symbol id="icon-arrow-left" viewBox="0 0 20 20">
<path d="M3.828 9l6.071-6.071-1.414-1.414-8.485 8.485 8.485 8.485 1.414-1.414-6.071-6.071h16.172v-2h-16.172z"></path>
</symbol>
<symbol id="icon-arrow-thick-left" viewBox="0 0 20 20">
<path d="M10 13h8v-6h-8v-5l-8 8 8 8v-5z"></path>
</symbol>
<symbol id="icon-cheveron-left" viewBox="0 0 20 20">
<path d="M7.050 9.293l-0.707 0.707 5.657 5.657 1.414-1.414-4.242-4.243 4.242-4.243-1.414-1.414z"></path>
</symbol>
<symbol id="icon-cheveron-right" viewBox="0 0 20 20">
<path d="M12.95 10.707l0.707-0.707-5.657-5.657-1.414 1.414 4.242 4.243-4.242 4.243 1.414 1.414 4.95-4.95z"></path>
</symbol>
<symbol id="icon-edit-pencil" viewBox="0 0 20 20">
<path d="M12.3 3.7l4 4-12.3 12.3h-4v-4l12.3-12.3zM13.7 2.3l2.3-2.3 4 4-2.3 2.3-4-4z"></path>
</symbol>
<symbol id="icon-key" viewBox="0 0 20 20">
<path d="M12.26 11.74l-2.26 2.26h-2v2h-2v2l-2 2h-4v-4l8.26-8.26c-0.164-0.521-0.258-1.12-0.258-1.742 0-3.314 2.686-6 6-6s6 2.686 6 6c0 3.314-2.686 6-6 6-0.621 0-1.221-0.094-1.784-0.27l0.043 0.011zM17.12 7.12c0.542-0.543 0.877-1.292 0.877-2.12 0-1.656-1.342-2.998-2.997-3h-0c-0.828 0.001-1.578 0.337-2.12 0.88l-0 0 4.24 4.24z"></path>
</symbol>
<symbol id="icon-navigation-more" viewBox="0 0 20 20">
<path d="M4 12c-1.105 0-2-0.895-2-2s0.895-2 2-2v0c1.105 0 2 0.895 2 2s-0.895 2-2 2v0zM10 12c-1.105 0-2-0.895-2-2s0.895-2 2-2v0c1.105 0 2 0.895 2 2s-0.895 2-2 2v0zM16 12c-1.105 0-2-0.895-2-2s0.895-2 2-2v0c1.105 0 2 0.895 2 2s-0.895 2-2 2v0z"></path>
</symbol>
<symbol id="icon-trash" viewBox="0 0 20 20">
<path d="M6 2l2-2h4l2 2h4v2h-16v-2h4zM3 6h14l-1 14h-12l-1-14zM8 8v10h1v-10h-1zM11 8v10h1v-10h-1z"></path>
</symbol>
<symbol id="icon-user-solid-circle" viewBox="0 0 20 20">
<path d="M10 20c-5.523 0-10-4.477-10-10s4.477-10 10-10v0c5.523 0 10 4.477 10 10s-4.477 10-10 10v0zM7 6v2c0 1.657 1.343 3 3 3s3-1.343 3-3v0-2c0-1.657-1.343-3-3-3s-3 1.343-3 3v0zM3.35 14.44c1.456 2.155 3.89 3.553 6.65 3.553s5.194-1.398 6.632-3.525l0.018-0.028c-1.951-0.918-4.238-1.453-6.65-1.453s-4.699 0.536-6.748 1.495l0.098-0.041z"></path>
</symbol>
<symbol id="icon-plus" viewBox="0 0 20 20">
<path d="M19.375 7.5h-6.875v-6.875c0-0.345-0.28-0.625-0.625-0.625h-3.75c-0.345 0-0.625 0.28-0.625 0.625v6.875h-6.875c-0.345 0-0.625 0.28-0.625 0.625v3.75c0 0.345 0.28 0.625 0.625 0.625h6.875v6.875c0 0.345 0.28 0.625 0.625 0.625h3.75c0.345 0 0.625-0.28 0.625-0.625v-6.875h6.875c0.345 0 0.625-0.28 0.625-0.625v-3.75c0-0.345-0.28-0.625-0.625-0.625z"></path>
</symbol>
<symbol id="icon-checkmark" viewBox="0 0 20 20">
<path d="M16.875 2.5l-9.375 9.375-4.375-4.375-3.125 3.125 7.5 7.5 12.5-12.5z"></path>
</symbol>
<symbol id="icon-arrow-left2" viewBox="0 0 20 20">
<path d="M7.866 17.134l-6.25-6.25c-0.488-0.488-0.488-1.28 0-1.768l6.25-6.25c0.488-0.488 1.28-0.488 1.768 0s0.488 1.28 0 1.768l-4.116 4.116h11.982c0.69 0 1.25 0.56 1.25 1.25s-0.56 1.25-1.25 1.25h-11.982l4.116 4.116c0.244 0.244 0.366 0.564 0.366 0.884s-0.122 0.64-0.366 0.884c-0.488 0.488-1.28 0.488-1.768 0z"></path>
</symbol>
</defs>
</svg>
